<?xml version="1.0" encoding="utf-8"?>
<!-- Generator: Adobe Illustrator 23.0.3, SVG Export Plug-In . SVG Version: 6.00 Build 0)  -->
<svg version="1.1" xmlns="http://www.w3.org/2000/svg" xmlns:xlink="http://www.w3.org/1999/xlink" x="0px" y="0px"
	 viewBox="0 0 1100 800" style="enable-background:new 0 0 1100 800;" xml:space="preserve">
<style type="text/css">
	.st0{fill:#FFFFFF;}
	.st1{opacity:0.5;}
	.st2{fill:#292949;}
	.st3{fill:#EFBFA5;}
	.st4{fill:#353A85;}
	.st5{fill:#FFB606;}
	.st6{fill:#BABCBE;}
	.st7{fill:#5D66D3;}
	.st8{fill:#EED5D5;}
	.st9{fill:#9EB79C;}
	.st10{fill:#B0C0BA;}
	.st11{fill:#8CABEF;}
	.st12{fill:#3B3387;}
	.st13{fill:#DDDAE8;}
	.st14{fill:#474EBB;}
	.st15{fill:#D67086;}
	.st16{opacity:0.13;}
	.st17{clip-path:url(#SVGID_2_);fill:#000100;}
	.st18{opacity:0.64;}
	.st19{clip-path:url(#SVGID_4_);fill:#5D66D3;}
	.st20{opacity:0.11;}
	.st21{clip-path:url(#SVGID_6_);fill:#000100;}
	.st22{fill:#DFD8C7;}
	.st23{fill:#C1BBAC;}
	.st24{fill:#CBC4B5;}
	.st25{fill:#F4F4F4;}
	.st26{opacity:0.05;}
	.st27{clip-path:url(#SVGID_8_);fill:#272525;}
	.st28{clip-path:url(#SVGID_10_);fill:#272525;}
	.st29{fill:#272525;}
	.st30{opacity:0.7;fill:#272525;}
	.st31{opacity:0.08;}
	.st32{clip-path:url(#SVGID_12_);fill:#272525;}
	.st33{fill:#B97262;}
	.st34{opacity:0.1;}
	.st35{clip-path:url(#SVGID_14_);fill:#272525;}
	.st36{fill:#23221C;}
	.st37{opacity:0.2;}
	.st38{clip-path:url(#SVGID_16_);fill:#272525;}
	.st39{clip-path:url(#SVGID_18_);fill:#272525;}
</style>
<g id="background">
	<rect class="st0" width="1100" height="800"/>
</g>
<g id="Shadow">
	<g class="st1">
		<path class="st2" d="M521.96,614.12c-28.19,0.08-56.39,0.76-84.53,3.89c-10.61,1.18-21,3.78-31.64,4.82
			c-21.24,2.09-42.11,5.99-63.43,7.79c-17.17,1.45-34.41,2.3-51.53,4.14c-16.05,1.72-33.82,1.33-49.74-1.52
			c-11.79-2.11-23.63-3.3-35.23-6.68c-12.97-3.79-27.05-6.5-40.57-6.4c-19.27,0.14-38.03,0.16-56.47,6.85
			c-6.47,2.35-14.4,6.21-19.31,11.14c-11.25,11.28-12.77,39.43-1.54,51.13c18.92,19.69,59.3,27.42,85.83,27.79
			c29.06,0.4,57.3-1.76,86.4-3.03c27.05-1.18,54.02-2.86,81.11-2.8c55.33,0.12,110.66,0,165.89-3.7
			c51.89-3.47,103.91-2.28,155.91-2.28c53.33,0,106.29,0.42,159.23,7.51c23.07,3.09,46.57,4.17,69.75,6.33
			c20.76,1.94,40.71-0.04,61.39-1.83c17.36-1.5,34.62-5.96,50.39-13.5c12.49-5.97,34.75-24.51,38.58-38.75
			c10.74-39.93-151.3-38.97-176.18-38.88c-27.83,0.1-55.88,1.02-83.69-0.04c-11.7-0.45-23.22-2.73-34.64-5.24
			c-11.37-2.5-22.83-1.86-34.36-2.91c-48.09-4.37-96.29-3.73-144.54-3.73C553.38,614.21,537.67,614.07,521.96,614.12z"/>
		<g>
			<path class="st2" d="M521.96,609.12c-20.33,0.07-40.67,0.43-60.96,1.8c-9.87,0.67-19.77,1.46-29.57,2.87
				c-9.86,1.43-19.58,3.37-29.5,4.44c-19.9,2.15-39.62,5.68-59.57,7.39c-19.55,1.68-39.18,3.47-58.76,4.77
				c-19.66,1.31-38.6-1.48-57.94-4.68c-19.07-3.15-37.15-9.95-56.66-10.51c-18.56-0.54-38.21-0.07-56.13,5.22
				c-13.98,4.13-28.05,11.05-33.84,25.2c-4.81,11.76-5.3,26.37-0.33,38.16c5.01,11.89,17.47,19.4,28.76,24.49
				c28.7,12.92,59.99,14.43,90.96,13.59c40.4-1.09,80.72-4.28,121.12-5.34c40.83-1.07,81.7-0.04,122.54-1.08
				c40.81-1.03,81.5-4.47,122.32-5.13c40.78-0.66,81.61-0.21,122.4,0c40.66,0.2,81.39,1.2,121.83,5.77
				c20.08,2.27,40.06,4.56,60.22,6.11c20,1.53,39.63,3.33,59.71,2.09c33.76-2.09,68.5-5.86,95.56-28.1
				c12.24-10.05,32.88-30.22,19.32-46.77c-9.03-11.03-25.91-15.06-39.13-18.02c-19.85-4.46-40.27-6.53-60.53-7.98
				c-40.09-2.87-80.16-2.13-120.31-1.84c-20.21,0.15-40.84,0.82-60.8-2.8c-9.68-1.75-19.1-4.11-28.96-4.74
				c-10-0.64-19.99-1.13-29.99-1.9c-40.84-3.16-81.83-2.97-122.76-2.91C561.3,609.23,541.63,609.07,521.96,609.12
				c-6.43,0.02-6.45,10.02,0,10c39.14-0.1,78.32-0.29,117.46,0.29c19.8,0.29,39.61,0.94,59.36,2.34c9.42,0.67,18.81,1.54,28.25,1.94
				c10,0.42,19.36,2.07,29.15,3.99c19.05,3.74,38.2,3.94,57.55,3.92c17.84-0.01,35.68-0.4,53.52-0.47
				c12.64-0.05,25.28,0.06,37.92,0.41c19.71,0.54,39.42,1.58,59.03,3.64c17.95,1.89,36.3,4.37,53.44,10.25
				c5.46,1.87,11.81,4.58,15.79,7.99c2.11,1.81,2.92,2.64,3.99,4.93c-0.28-0.6,0.46,1.46,0.57,2.11c-0.19-1.13-0.15,2.74-0.01,1.81
				c-1.67,11.16-13.77,21.13-22,27.71c-12.11,9.68-26.52,15.28-41.51,18.86c-17.93,4.3-37.05,5.26-55.43,5.89
				c-19.37,0.66-38.66-1.65-57.95-3.15c-19.52-1.52-38.86-4.11-58.33-6.15c-19.24-2.01-38.56-3.25-57.9-4
				c-39.07-1.52-78.18-1.11-117.27-1.29c-39.14-0.18-78.32-0.28-117.41,2.2c-78.34,4.98-156.77,2.28-235.12,6
				c-19.68,0.94-39.35,1.99-59.03,2.87c-17.28,0.77-34.81,1.68-52.09,0.4c-14.04-1.03-28.08-3.66-41.44-8.14
				c-11.28-3.78-26.03-9.7-32.83-20.13c-6.31-9.67-5.62-24.71-1.03-34.91c6.37-14.15,25.58-18.94,39.49-21.23
				c9.21-1.52,18.59-1.82,27.9-1.96c9.55-0.14,18.99-0.09,28.44,1.48c9.32,1.54,18.24,4.48,27.43,6.53
				c9.2,2.06,18.59,3.22,27.87,4.81c17.95,3.06,35.84,3.24,53.93,1.4c19.09-1.93,38.29-2.62,57.37-4.69
				c18.9-2.05,37.71-4.96,56.6-7.15c9.36-1.08,18.55-3.19,27.89-4.4c9.74-1.27,19.58-1.96,29.37-2.56
				c18.99-1.17,38.01-1.48,57.03-1.55C528.4,619.1,528.41,609.1,521.96,609.12z"/>
		</g>
	</g>
</g>
<g id="object">
	<path class="st3" d="M111.9,324.91c2.35-1.4,5.98-1.8,8.86-3.35c1.45-0.78,1.4-4.12,4.46-2.58c1.13,0.57,3.05,2.22,5.22,3.27
		c3.16,1.54,7.83,1.84,11.84,1.32c15.78-2.04,31.61-3.78,47.59-3.98c0.91-0.01,1.81,0.01,2.62-0.46c1.44-0.84,1.76-2.38,2.24-3.89
		c2.23-6.96,4.66-13.76,8.19-20.21c3.15-5.75,6.75-11.18,12.18-14.96c5.42-3.79,12.28-5.32,18.31-2.79
		c4.52,1.89,8.09,5.48,8.63,10.41c1.34,12.23-10.49,20.25-17.85,28.09c-6.96,7.42-12.91,13.71-20.11,20.44
		c-0.89,0.83-1.73,1.61-2.91,2.02c-1.18,0.41-2.5,0.33-3.73,0.2c-15.85-1.61-31.27-3.58-47.09-1.72c-4.35,0.51-8.17-0.74-12.31,0.28
		c-2.64,0.65-4.21,3.07-6.67,4.08c-2.47,1.01-5.36,2-8.02,1.95c-5.86-0.12-12.05-5.59-13.52-11.35
		C108.89,327.91,109.96,326.07,111.9,324.91"/>
	<path class="st4" d="M224.41,311.38c-8.64-4.17-17.83-7.06-26.19-11.92c3.83-7.31,15.68-37.37,17.58-40.93
		c7.25-13.58,8.94-19.55,17.87-26.27c19.07-14.35,39.13-1.96,36.28,20.54c-3.09,24.43-18.07,44.31-33.97,62.01
		c-0.35,0.38-0.79,0.67-1.35,0.82c-0.56,0.16-1.36-0.12-1.99-0.44C229.97,313.84,227.14,312.69,224.41,311.38"/>
	<path class="st3" d="M218.8,650.92c-3.14,0.11-6.16-0.6-9.24-0.88c-1.59-30.57,1.3-62.62,2.55-93.33
		c7.85,0.42,15.71,0.84,23.56,1.26c-5.47,16.42-9.37,33.36-11.66,50.51C223.65,611.19,219.24,650.91,218.8,650.92"/>
	<path class="st2" d="M208.6,644.11c-1.94-0.35-3.08,0.52-4.38,1.7c-0.75,0.69-1.26,1.66-2.17,2.15c-0.91,0.49-1.79,0.59-2.87,0.7
		c-5.67,0.57-18.72,0.33-11.77,9.81c6.31,8.6,23.09,5.18,32.78,2.84c0.64-0.15,1.31-0.25,1.78-0.74c0.47-0.49,0.78-1.2,0.98-1.92
		c1.11-4.05,2.62-9.11-2.36-10.8c-2.12-0.72-4.08,0.68-6.33-0.1C212.43,647.1,210.54,644.46,208.6,644.11"/>
	<path class="st2" d="M194.49,575.15c16.02-0.31,32.03-0.62,48.05-0.93c12.96-61.68,24.37-123.69,34.22-185.94
		c0.76-4.83,1.51-9.85,0.12-14.53c-2.63-8.86-12.12-13.92-21.2-15.61c-14.12-2.64-40.06,1.04-47.3,15.71
		c-7.65,15.51-6.37,43.22-8.22,60.36C195.09,480.99,193.19,528.11,194.49,575.15"/>
	<path class="st3" d="M310.39,650.92c3.14,0.11,6.16-0.6,9.24-0.88c1.59-30.57-1.3-62.62-2.55-93.33
		c-7.85,0.42-15.71,0.84-23.56,1.26c5.47,16.42,9.37,33.36,11.66,50.51C305.54,611.19,309.95,650.91,310.39,650.92"/>
	<path class="st2" d="M320.59,644.11c1.94-0.35,3.08,0.52,4.38,1.7c0.75,0.69,1.26,1.66,2.17,2.15c0.91,0.49,1.79,0.59,2.87,0.7
		c5.67,0.57,18.72,0.33,11.77,9.81c-6.31,8.6-23.09,5.18-32.78,2.84c-0.64-0.15-1.31-0.25-1.78-0.74c-0.47-0.49-0.78-1.2-0.98-1.92
		c-1.11-4.05-2.62-9.11,2.36-10.8c2.12-0.72,4.08,0.68,6.33-0.1C316.76,647.1,318.65,644.46,320.59,644.11"/>
	<path class="st2" d="M334.69,575.15c-16.02-0.31-32.03-0.62-48.05-0.93c-12.96-61.68-24.37-123.69-34.22-185.94
		c-0.76-4.83-1.51-9.85-0.12-14.53c2.63-8.86,12.12-13.92,21.21-15.61c14.12-2.64,40.06,1.04,47.3,15.71
		c7.65,15.51,6.37,43.22,8.22,60.36C334.1,480.99,336,528.11,334.69,575.15"/>
	<path class="st5" d="M293.62,236.92c12.84,12.22,22.46,27.92,28.25,44.18c10.26,28.8,10.46,59.55,10.55,89.68
		c0.03,10.03,0.06,20.06,0.09,30.08c0.03,9.87-0.84,11.99-11.56,10.69c-19.87-2.41-40.53-6.51-58.53-15.34
		c-8.57-4.2-16.57-9.51-25.56-12.82c-13.07-4.81-26.46-2.63-39.39-5.77c5.61-16.96,9.63-31.41,12.51-48.89
		c2.97-18,5.66-37.63,10.01-55.38c2.61-10.65,7.46-20.61,12.39-30.41c3.32-6.58,6.83-13.32,12.46-18.08
		C261.81,210.54,280.83,224.75,293.62,236.92"/>
	<path class="st3" d="M247.29,194.68c2.43,5.3,6.39,9.72,9.62,14.57c3.15,4.72,4.28,8.99,5.11,14.46c0.6,3.95,2.01,7.04,6.77,7.71
		c8.97,1.28,6.41-6.14,8.45-11.53c2.33-6.17,7.3-11.04,10.77-16.54c10.03-15.9,7.17-47.34-13.69-54.05
		C251.53,141.96,239.93,178.59,247.29,194.68"/>
	<path class="st2" d="M283.64,179.29c2.59,0.1,5.44,0.31,7.36,2.05c1.92,1.74,1.71,5.53-0.82,5.94c-2.3,0.37-5.27-2.03-6.68-0.28
		c-0.82,1.02-0.1,2.52,0.52,3.72c2.39,4.59,3.1,9.91,1.99,14.8c0.95,0.88,2.42-0.03,3.25-0.94c4.12-4.53,7.34-9.82,9.45-15.53
		c0.83,1.38,2.04,2.56,3.48,3.36c-0.86-2.15-0.32-4.49,0.21-6.68c1.95-8.04,3.28-17.47-2.34-24.04c-3.01-3.52-7.58-5.54-12.17-6.39
		c-4.6-0.85-9.28-0.64-13.92-0.43c-1.98,0.09-4.42,0.52-4.9,2.35c4.35,1.74,8.84,5.14,11.02,9.26
		C280.76,167.73,283.38,179.28,283.64,179.29"/>
	<path class="st2" d="M274.46,159.96c0.16,0.11,0.31,0.23,0.47,0.35c1.97,1.5,3.82,3.32,6.2,3.99c3.44,0.96,7.13-0.7,10.51,0.47
		c3.78,1.31,6.27,5.83,9.03,8.51c4.53,4.39,10.14,7.62,16.17,9.45c3.08,0.94,6.27,1.51,9.48,1.69c1.46,0.08,3.4,0.36,4.82-0.02
		c1.91-0.51,1.84-1.38-0.19-2.03c-6.37-2.04-8.36-10.98-7.88-16.91c0.38-4.68,1.99-9.57,0.21-13.91c-1.36-3.32-4.29-5.03-7.12-6.93
		c-3.12-2.09-6.5-1.53-10.05-2.54c-3.7-1.05-6.71-3.96-10.48-4.7c-3.98-0.78-7.96,0.98-11.95,1.76c-3.29,0.64-6.72,0.6-9.99-0.12
		c-2.94-0.65-5.8-1.83-8.8-1.81c-4.43,0.04-8.51,2.81-11.09,6.41c-3.66,5.09-6.02,13.8-4.73,20.51c-0.2-1.04,3.3-4.81,4.02-5.62
		c1.52-1.71,3.35-3.31,5.67-3.59C264.01,154.28,270.23,156.89,274.46,159.96"/>
	<path class="st6" d="M99.88,366.1c0,0,4.9,23.29,1.63,33.83l8.91,0.07l-2.88-37.45L99.88,366.1z"/>
	<path class="st6" d="M109.99,395.93c-2.5,0.4-5,0.68-7.52,0.85c-0.4,0.03-0.33,0.69,0.08,0.66c2.52-0.18,5.03-0.46,7.52-0.85
		C110.47,396.53,110.39,395.87,109.99,395.93"/>
	<path class="st6" d="M109.59,392.41c-2.14,0.29-4.27,0.58-6.72,0.92c-0.4,0.05-0.33,0.72,0.08,0.66c2.24-0.31,4.48-0.61,6.72-0.92
		C110.07,393.02,109.99,392.35,109.59,392.41"/>
	<path class="st6" d="M109.25,389.37c-1.65,0.49-2.67,0.79-6.42,0.75c-0.41,0-0.33,0.67,0.08,0.66c2.17-0.02,4.3-0.27,6.42-0.75
		C109.72,389.95,109.64,389.28,109.25,389.37"/>
	<path class="st6" d="M109.41,385.09c-2.16,0.52-4.34,0.89-6.55,1.13c-0.4,0.04-0.33,0.7,0.07,0.66c2.21-0.23,4.39-0.6,6.55-1.12
		C109.88,385.66,109.81,385,109.41,385.09"/>
	<path class="st6" d="M108.81,381.3c-2.13,0.32-4.27,0.58-6.42,0.77c-0.4,0.04-0.33,0.7,0.07,0.66c2.15-0.19,4.29-0.45,6.42-0.77
		C109.29,381.9,109.22,381.24,108.81,381.3"/>
	<path class="st6" d="M108.22,377.52c-2.07,0.39-4.14,0.7-6.23,0.93c-0.4,0.04-0.33,0.71,0.07,0.66c2.09-0.23,4.17-0.54,6.24-0.93
		C108.69,378.11,108.62,377.44,108.22,377.52"/>
	<path class="st6" d="M107.89,373.2c-2.21,0.47-4.44,0.85-6.69,1.14c-0.07,0.01-0.12,0.04-0.16,0.07c0,0.03,0.01,0.05,0.01,0.08
		c0.04,0.16,0.08,0.33,0.12,0.49c0.03,0.01,0.06,0.02,0.11,0.02c2.24-0.29,4.47-0.67,6.69-1.14
		C108.36,373.78,108.29,373.12,107.89,373.2"/>
	<path class="st6" d="M107.73,368.9c-2.18,0.32-4.37,0.63-6.55,0.95c-0.4,0.06-0.33,0.72,0.08,0.66c2.18-0.32,4.37-0.63,6.55-0.95
		C108.2,369.5,108.13,368.84,107.73,368.9"/>
	<path class="st5" d="M257.02,435.68L97.75,449.03c-0.2,0.02-0.38-0.14-0.4-0.35l-2.26-26.6c-0.02-0.21,0.13-0.39,0.34-0.41
		l159.27-13.35c0.2-0.02,0.38,0.14,0.4,0.35l2.26,26.6C257.37,435.48,257.22,435.66,257.02,435.68"/>
	<polygon class="st2" points="125.81,446.68 109.06,448.08 106.74,420.72 123.48,419.32 	"/>
	<polygon class="st2" points="133.39,446.04 129.67,446.35 127.35,419 131.07,418.68 	"/>
	<path class="st2" d="M146.37,431.18c0.23,2.68-1.72,5.02-4.34,5.24s-4.93-1.77-5.16-4.45c-0.23-2.68,1.72-5.02,4.34-5.24
		S146.15,428.5,146.37,431.18"/>
	<path class="st7" d="M256.03,408.51L96.77,421.86c-0.2,0.02-0.38-0.14-0.4-0.35l-1.81-21.31c-0.02-0.21,0.13-0.39,0.34-0.41
		l159.27-13.35c0.2-0.02,0.38,0.14,0.4,0.35l1.81,21.31C256.39,408.31,256.24,408.5,256.03,408.51"/>
	<polygon class="st8" points="115.4,404.38 116.22,413.94 120.89,409.26 	"/>
	<polygon class="st8" points="121.89,404.76 122.54,412.48 126.31,408.7 	"/>
	<polygon class="st8" points="105.76,421.11 105.04,421.17 103.17,399.11 103.89,399.05 	"/>
	<polygon class="st8" points="109.16,420.82 108.44,420.88 106.57,398.82 107.29,398.76 	"/>
	<path class="st8" d="M136.64,153.54l-11.34,4.2l0.15-2.73c0.46-8.21-0.96-18.09-3.35-25.98l0.47-0.49l10.4-8.98L136.64,153.54z"/>
	<polygon class="st9" points="201.46,149.14 135.66,152.05 125.02,157.62 196.27,154.63 	"/>
	<path class="st10" d="M124.83,156.89c1.91-0.51,3.72-1.78,5.53-2.78c1.7-0.94,3.4-1.88,5.09-2.82c0.27-0.15,0.48,0.74,0.21,0.89
		c-1.83,1.01-3.66,2.03-5.5,3.05c-1.72,0.95-3.43,2.11-5.24,2.6C124.64,157.89,124.55,156.96,124.83,156.89"/>
	<path class="st10" d="M132.98,120.79c-3.81,2.48-7.49,5.53-11.03,9.15c-0.37,0.38-0.84-0.83-0.47-1.21
		c3.59-3.67,7.32-6.78,11.18-9.3C133.07,119.18,133.38,120.54,132.98,120.79"/>
	<path class="st11" d="M198.72,117l-66.29,2.58l1.03,7.3c0.83,5.9,1.43,11.83,1.79,17.73l0.41,7.45l65.79-2.9l0.02-0.44
		C202.03,138.33,201.08,127.3,198.72,117"/>
	<path class="st7" d="M142.45,119.93c-0.19-0.93-1.64-0.76-1.44,0.17c2.04,9.77,2.77,19.72,2.14,29.68
		c-0.06,0.95,1.38,1.18,1.44,0.22C145.22,139.91,144.52,129.83,142.45,119.93"/>
	<path class="st7" d="M190.82,118.41c-0.2-0.93-1.65-0.75-1.44,0.19c2.12,9.75,2.94,19.69,2.39,29.66
		c-0.05,0.95,1.39,1.16,1.44,0.21C193.76,138.37,192.97,128.29,190.82,118.41"/>
	<path class="st3" d="M105.02,197.27l-25.44,6.49l0.54-3.68c1.63-11.09-0.8-24.3-5.49-34.76l1.07-0.7l23.71-12.86L105.02,197.27z"/>
	<polygon class="st2" points="248.98,186.6 102.97,195.34 78.97,203.62 237.08,194.38 	"/>
	<path class="st4" d="M78.61,202.65c4.28-0.83,8.38-2.67,12.47-4.16c3.84-1.39,7.66-2.78,11.49-4.17c0.61-0.22,1,0.96,0.4,1.18
		c-4.13,1.5-8.26,3-12.4,4.51c-3.88,1.41-7.75,3.1-11.81,3.89C78.11,204.02,77.98,202.78,78.61,202.65"/>
	<path class="st4" d="M99.36,153.44c-8.62,3.63-17.01,8-25.11,13.14c-0.84,0.53-1.8-1.05-0.96-1.59
		c8.22-5.21,16.72-9.67,25.47-13.35C99.66,151.26,100.26,153.06,99.36,153.44"/>
	<path class="st12" d="M245.3,143.5l-147.08,8.33l1.74,9.76c1.4,7.89,2.29,15.83,2.65,23.75l0.36,10l146-8.74l0.09-0.6
		C251.06,171.99,249.76,157.21,245.3,143.5z"/>
	<path class="st13" d="M242.99,387.15l-134.78,11.3l-2.75-32.36l134.78-11.3l0.17,0.43C244.36,365.38,245.26,376.5,242.99,387.15"/>
	
		<rect x="120.59" y="364.08" transform="matrix(0.9965 -0.0835 0.0835 0.9965 -31.3143 12.1916)" class="st4" width="18.9" height="32.48"/>
	<path class="st3" d="M103.03,331.79l-25.32-1.58l1.15,2.78c3.46,8.36,3.46,18.86,0.85,27.48l1.13,0.4l24.62,6.91L103.03,331.79z"/>
	<polygon class="st2" points="249.07,320 101.4,333.58 77.16,330.4 235.4,315.41 	"/>
	<path class="st4" d="M76.99,331.2c4.18,0.07,8.39,0.94,12.52,1.54c3.89,0.56,7.78,1.13,11.67,1.69c0.62,0.09,0.79-0.88,0.18-0.97
		c-4.2-0.61-8.4-1.22-12.6-1.83c-3.93-0.57-7.88-1.35-11.85-1.41C76.28,330.2,76.37,331.19,76.99,331.2"/>
	<path class="st4" d="M105.11,366.5c-8.81-1.71-17.48-4.02-25.98-6.94c-0.88-0.3-1.51,1.03-0.62,1.34
		c8.62,2.96,17.41,5.33,26.34,7.07C105.77,368.14,106.03,366.68,105.11,366.5"/>
	<path class="st14" d="M252.08,355.49l-147.77,12.39l-0.01-7.73c-0.01-6.27-0.52-12.54-1.53-18.73l-1.37-7.83L249.07,320l0.18,0.47
		C253.58,331.62,254.57,343.81,252.08,355.49"/>
	<path class="st11" d="M234.6,318.94L94.56,330.68c-0.2,0.02-0.38-0.14-0.4-0.35l-2.78-32.79c-0.02-0.21,0.13-0.39,0.34-0.41
		l140.04-11.74c0.2-0.02,0.38,0.14,0.4,0.35l2.78,32.79C234.96,318.74,234.81,318.93,234.6,318.94"/>
	<path class="st7" d="M249.1,260.02L75.97,274.53c-0.2,0.02-0.38-0.14-0.4-0.35l-2.01-23.73c-0.02-0.21,0.13-0.39,0.34-0.41
		l173.13-14.51c0.2-0.02,0.38,0.14,0.4,0.35l2.01,23.73C249.46,259.82,249.3,260.01,249.1,260.02"/>
	<path class="st5" d="M219.28,238.32l-110.36,9.25l-4.1-48.37l110.36-9.25l0.63,2.66c3.33,14.07,4.56,28.56,3.65,42.98
		L219.28,238.32z"/>
	<polygon class="st8" points="143.02,244.39 121.12,246.23 117.07,198.51 138.97,196.67 	"/>
	
		<rect x="123.77" y="197.51" transform="matrix(0.9965 -0.0835 0.0835 0.9965 -18.0453 11.6289)" class="st15" width="12.34" height="47.89"/>
	<g class="st16">
		<g>
			<defs>
				<rect id="SVGID_1_" x="104.84" y="190.23" width="112.96" height="12.32"/>
			</defs>
			<clipPath id="SVGID_2_">
				<use xlink:href="#SVGID_1_"  style="overflow:visible;"/>
			</clipPath>
			<polygon class="st17" points="104.84,199.48 215.2,190.23 217.79,202.55 105.06,202.1 			"/>
		</g>
	</g>
	<g class="st18">
		<g>
			<defs>
				<rect id="SVGID_3_" x="147.13" y="126.32" width="15" height="15.3"/>
			</defs>
			<clipPath id="SVGID_4_">
				<use xlink:href="#SVGID_3_"  style="overflow:visible;"/>
			</clipPath>
			<path class="st19" d="M162.1,133.35c0.36,4.21-2.7,7.91-6.82,8.25c-4.13,0.35-7.76-2.79-8.12-7c-0.36-4.21,2.7-7.91,6.82-8.25
				C158.11,126,161.74,129.13,162.1,133.35"/>
		</g>
	</g>
	<path class="st13" d="M91.89,260.61c-1.65-1.76-3.49-3.21-5.55-4.43c-0.81-0.48-1.43,0.86-0.62,1.34c1.76,1.04,3.32,2.28,4.75,3.73
		c-1.26,1.77-2.64,3.43-4.14,5c-0.65,0.68,0.46,1.64,1.11,0.96c1.66-1.73,3.17-3.57,4.54-5.55
		C92.23,261.3,92.19,260.92,91.89,260.61"/>
	<path class="st13" d="M100.29,259.6c-1.12-1.45-3.07-2.6-4.47-3.75c-0.73-0.6-1.67,0.53-0.94,1.13c1.19,0.97,2.86,1.95,3.92,3.13
		c-0.49,0.73-1.37,1.44-1.91,2.03c-0.71,0.79-1.43,1.59-2.14,2.38c-0.63,0.7,0.48,1.66,1.11,0.96c0.86-0.95,1.71-1.9,2.57-2.85
		c0.63-0.7,1.52-1.4,1.91-2.28C100.46,260.11,100.46,259.8,100.29,259.6"/>
	<path class="st13" d="M104.34,253.52c-0.72-0.61-1.66,0.52-0.94,1.13c0.43,0.37,1.34,1.69,0.37,1.96c-0.9,0.26-0.39,1.65,0.51,1.39
		c0.9-0.26,1.39-1.15,1.35-2.07C105.59,254.99,105.04,254.11,104.34,253.52"/>
	<path class="st13" d="M112.73,256.6c-0.23-0.28-0.55-0.33-0.82-0.24c-1.27-0.53-2.79-0.15-3.59,1.01
		c-0.79,1.15-0.52,2.78,0.47,3.73c1.1,1.04,2.79,0.92,3.84-0.11C113.84,259.82,113.77,257.87,112.73,256.6 M111.68,259.88
		c-0.52,0.56-1.4,0.66-1.94,0.09c-1.12-1.18,0.24-2.86,1.62-2.24c0.15,0.06,0.28,0.08,0.41,0.06
		C112.15,258.44,112.24,259.27,111.68,259.88"/>
	
		<rect x="212.9" y="286.91" transform="matrix(0.9965 -0.0837 0.0837 0.9965 -24.6721 18.9503)" class="st13" width="1.68" height="33.79"/>
	
		<rect x="219.66" y="286.34" transform="matrix(0.9965 -0.0837 0.0837 0.9965 -24.6179 19.5286)" class="st13" width="1.68" height="33.79"/>
	<g class="st20">
		<g>
			<defs>
				<rect id="SVGID_5_" x="105.46" y="356.43" width="137.06" height="12.17"/>
			</defs>
			<clipPath id="SVGID_6_">
				<use xlink:href="#SVGID_5_"  style="overflow:visible;"/>
			</clipPath>
			<path class="st21" d="M105.46,367.78l135.4-11.35c0,0,1.15,3.23,1.66,5.41l-136.84,6.76L105.46,367.78z"/>
		</g>
	</g>
	<path class="st2" d="M242.17,284.83L69.04,299.34c-0.2,0.02-0.38-0.14-0.4-0.35l-2.01-23.73c-0.02-0.21,0.13-0.39,0.34-0.41
		l173.13-14.51c0.2-0.02,0.38,0.14,0.4,0.35l2.01,23.73C242.53,284.63,242.38,284.81,242.17,284.83"/>
	
		<rect x="87.71" y="280.31" transform="matrix(0.9965 -0.0834 0.0834 0.9965 -23.479 8.4155)" class="st13" width="2.63" height="10.05"/>
	
		<rect x="95.93" y="279.62" transform="matrix(0.9965 -0.0834 0.0834 0.9965 -23.3938 9.0993)" class="st13" width="2.63" height="10.05"/>
	<path class="st8" d="M249.72,259.52L76.1,274.31c-0.51,0.05-0.93-0.4-0.87-0.92l173.85-16.19L249.72,259.52z"/>
	<path class="st13" d="M248.99,258.52L75.38,273.31c-0.51,0.05-0.93-0.4-0.87-0.92l173.85-16.19L248.99,258.52z"/>
	<path class="st6" d="M97.26,203.78c0,0,7.78,30.23,2.71,43.42l8.95,0.37l-4.08-48.09L97.26,203.78z"/>
	<path class="st3" d="M230.26,360.77c0.11-0.3,0.22-0.6,0.4-0.85c1.68-2.29,3.92-2.48,6.15-4.21c1-0.77,0.71-4,3.2-3.14
		c0.92,0.32,3.06,1.42,5.01,2.12c2.84,1.02,7.06,0.6,10.36-0.36c4.42-1.28,9.07-2.75,13.22-4.66c4.34-2,8.57-4.23,12.71-6.63
		c3.44-2,8.91-4.29,11.51-7.34c4.4-5.15-0.7-17.69-1.28-24.12c-0.6-6.7-0.02-26.43,9.02-26.99c14.81-0.91,15.05,13.16,15.71,24.5
		c0.41,7.07,0.38,14.28-0.25,21.34c-0.89,9.89-7.3,15.55-15.77,20.23c-8.98,4.96-18.16,9.83-28.02,12.78
		c-4.79,1.44-9.51,1.86-14.41,2.65c-4.83,0.78-4.22,2.89-8.27,4.66c-2.26,0.99-4.38,2.42-6.8,2.97c-4.33,0.99-7.81-2.01-11.1-4.34
		c-0.82-0.58-1.38-0.97-1.8-1.81c-0.69-1.36-0.42-2.82-0.21-4.28C229.78,362.44,229.97,361.59,230.26,360.77"/>
	<path class="st5" d="M316,312.93c-8.38,1.62-16.75,3.25-25.12,4.87c0.54-0.1-9.69-37.55-10.22-39.8
		c-2.03-8.59-4.07-17.5-2.33-26.15c3.72-18.47,12.62-23.02,23.84-3.61c10.59,18.32,27.19,40.25,23.9,61.11
		c-0.07,0.45-0.16,0.93-0.44,1.29c-0.39,0.49-1.07,0.64-1.68,0.76L316,312.93z"/>
	<path class="st5" d="M524.21,249.77c12.16,7.4,25.77,12.43,39.83,14.7c2.51-11.52,5.17-23.01,7.97-34.47
		c1.21-4.94,2.47-9.95,4.89-14.46c1.29-2.4,6.12-6.77,4.62-9.88c-2.63-5.45-14.09,0.58-17.36,2.39
		c-8.53,4.72-16.34,11.29-23.04,18.32C539.5,228.08,522.72,248.87,524.21,249.77"/>
	<path class="st3" d="M641.4,520.87l0.78,47.16c-0.32,13.08,0.86,26.13,1.66,39.17c0.74,12.11-1.7,24.6,4.04,35.83
		c1.8,3.52,5.64,5.97,8.55,1.91c2.25-3.13,1.21-8.56,1.77-12.19c4.17-27.34,11.94-54,15.82-81.39
		C678.08,522.66,666.98,523.42,641.4,520.87"/>
	<polygon class="st2" points="644.08,634.96 641.04,642.83 655.96,655.96 669.63,656.53 674.05,649.31 655.67,633.33 	"/>
	<path class="st3" d="M607.99,521.33l-8.6,46.37c-2.98,20.75-9.76,40.95-12.74,61.69c-0.69,4.77-0.34,9.99-2.33,14.49
		c-1.95,4.4-5.77,4.58-9.14,1.59c-4.51-4-2.43-11.15-2.35-16.62c0.55-36.41-2.31-72.3-3-108.76c-0.01-0.48,0.01-1.03,0.38-1.33
		c0.3-0.25,0.73-0.24,1.12-0.22C574.87,518.79,607.8,522.34,607.99,521.33"/>
	<polygon class="st2" points="572.72,636.9 567.99,643.88 579.57,660.04 592.75,663.67 598.69,657.65 584.39,637.93 	"/>
	<polygon class="st2" points="690,550.88 683.57,483.46 680.46,439.65 670.03,403.88 613.7,395.13 544.06,407.07 540.71,420.6 
		554.12,545.85 621.29,550.88 620.38,472.93 630.74,521.24 630.3,550.88 	"/>
	<path class="st0" d="M558.85,272.15c-0.09,2.28-0.16,4.55-0.2,6.82c-0.82,46.25,1.73,93.08,2.03,139.71
		c23.88-3.74,48.03-5.8,72.19-6.16c5.59-0.08,31.03,3.84,34.57,0.5c4.81-4.53-0.48-3.68-0.13-9.58c0.46-7.64-3.22-13.9-1.83-22.95
		c1.63-10.64,4.87-21.17,6.74-31.81c3.74-21.33,6-42.93,6.73-64.58c0.65-19.2-0.05-39.11-8.3-56.46
		c-20.36-42.78-86.01-42.01-104.02,2.66C561.29,243.53,559.44,257.85,558.85,272.15"/>
	<path class="st5" d="M632.92,212.14l-17.83,32.49c0.93,32.82,1.86,65.65,2.79,98.47c0.43,15.13,0.86,30.25,1.29,45.38
		c0.15,5.25,0.28,10.51,0.45,15.76c0.08,2.36-0.57,6.33,0.77,8.25c2.92,4.18,13.59,2.87,18.24,3.24c7.26,0.57,14.62,1.16,21.46,3.67
		c4.55,1.67,8.87,4.18,13.67,4.86c1.08,0.15,2.28,0.17,3.13-0.51c0.95-0.77,1.11-2.12,1.2-3.34c1.67-22.53,1.7-45.76,2.95-68.54
		c0.98-17.91,3.41-35.97,2.55-53.9c-0.88-18.45-3.77-36.81-7.29-54.92c-2.09-10.72-4.54-21.65-10.45-30.84
		c-6.69-10.42-16.16-14.59-27.83-16.94c-4.12-0.83-19.46-6.63-16.9,2.74C622.4,202.63,629.79,208.42,632.92,212.14"/>
	<path class="st5" d="M594.13,215.2l17.83,32.49c-0.37,0-2.26,79.65-2.41,85.02c-0.58,20.44-1.16,40.89-1.74,61.33
		c-0.16,5.68,0.6,12.34-0.51,17.93c-1.55,7.8-9.76,6.26-16.76,6.89c-15.3,1.38-31.41,3.99-46.76,3.22
		c-4.43-0.22,1.4-92.6,1.39-101.21c-0.03-31-6.43-65.4,9.32-93.51c4.58-8.18,12.66-21.29,21.58-25.33c8.31-3.76,20.2-4.4,29.22-6.51
		l0.47,5.84L594.13,215.2z"/>
	<path class="st2" d="M632.83,136.5c2.81,4.92,4.16,10.59,4.41,16.24c0.07,1.5,0.17,3.24,1.38,4.13c1.3,0.95,0.16,3.04,1.15,1.77
		c0.99-1.27,4.35-5.69,4.5-7.3c0.35-3.76,0.35-7.55-0.02-11.31c-0.32-3.27-0.99-6.69-3.13-9.18c-1.27-1.48-2.96-2.52-4.63-3.52
		c-2.42-1.46-4.91-2.93-7.69-3.45c-4.79-0.89-7.72,0.82-3.5,4.16C628.35,130.43,630.91,133.13,632.83,136.5"/>
	<path class="st3" d="M602.92,200.68c0.03,2.32-0.44,4.72,1.6,6.51c0.98,0.86,2.31,1.21,3.6,1.41c3.34,0.53,6.8,0.28,10.03-0.71
		c1.33-0.41,2.65-0.96,3.66-1.93c1.18-1.14,1.25-2.22,1.3-3.71c0.07-1.75,0.42-3.52,0.65-5.29c0.5-3.87,0.72-7.77,0.84-11.67
		c5.73-0.98,12.48-2.84,14.44-8.85c0.62-1.89,0.64-3.95,0.65-5.96c0.06-8.32,0.12-16.65,0.18-24.97c0.02-2.88,0.03-5.84-0.96-8.52
		c-1.73-4.69-6.12-7.48-10.43-9.24c-11-4.49-23.82-4.31-33.97,2.07c-2.7,1.7-5.25,3.88-6.81,6.85c-2.4,4.57-2.1,10.22-1.72,15.49
		c0.34,4.87,0.69,9.74,1.03,14.61c0.4,5.6,1.24,12.05,5.59,15c2.31,1.57,5.29,1.86,7.28,3.89c3.47,3.55,1.82,8.85,2.84,13.15
		C602.87,199.43,602.92,200.05,602.92,200.68"/>
	<path class="st2" d="M641.71,167.17c-0.09-1.54-0.77-6.06-3.09-3.22c-0.61,0.74-0.76,1.79-0.79,2.78c-0.04,0.99,0.01,2.01-0.3,2.94
		c-0.72,2.14-3.08,3.11-5.19,3.07c-0.84-0.01-1.69-0.15-2.43-0.57c-0.72-0.41-1.29-1.06-1.85-1.7c-1.35-1.55-2.71-3.11-4.06-4.66
		c-2.33-2.67-6.94-1.51-10.07-1.11c-3.61,0.47-7.23,1.56-10.18,3.94c-0.3,0.24-0.59,0.49-0.88,0.74c-0.71,0.61-1.43,1.22-2.25,1.62
		c-2.79,1.36-6.24-0.06-8.2-2.6c-0.9-1.16-1.73-2.66-3.12-2.86c-1.09-0.15-2.15,0.63-2.71,1.65c-0.56,1.02-0.71,2.23-0.78,3.41
		c-0.28,4.3,0.32,8.73,2.18,12.54c4.04,8.27,11.85,9.28,19.7,9.1c3.1-0.07,6.21-0.15,9.31-0.22c5.67-0.13,11.67-0.37,16.45-3.67
		c4.22-2.91,6.72-7.86,7.75-13.04C641.71,172.66,641.87,169.9,641.71,167.17 M620.95,178.89c-2.99,2.01-6.28,2.12-9.61,1.11
		c-1.42-0.43-0.82-2.8,0.6-2.38c2.76,0.83,5.36,0.81,7.85-0.86C621.05,175.92,622.2,178.05,620.95,178.89"/>
	<path class="st2" d="M642.89,122.07c0.55-2.02,0.95-4.07,1.21-6.15c-1.92,0.67-4.01,0.85-6.02,0.52c0-1.2-0.01-2.39-0.01-3.59
		c-0.01-1-13.47-1.69-14.57-1.78c-10.24-0.84-19.61-1.64-28.87,3.86c-7.91,4.7-12.98,11.71-14.2,20.84
		c-1.16,8.72,1.69,20.11,6.74,27.34c-0.03-2.32-1.36-7.8-0.82-10c0.34-2.21,1.1-4.34,2.15-6.31c2.1-3.93,5.36-7.24,9.13-9.6
		c6-3.76,12.98-5.75,19.95-6.72c6.39-0.89,14.17-1.71,20.48-0.02c3.03,0.81,3.54,1.57,5.37-1.49c0.32-0.54,2.89-6.84,2.64-6.85
		C645.02,122.11,643.96,122.09,642.89,122.07"/>
	<path class="st4" d="M842.5,276.6l-228.75,22.74L384.99,276.6c-6.44-0.64-11.91,4.68-11.51,11.19l9.54,226.33
		c0.32,5.17,4.29,9.35,9.4,9.88c37.64,3.87,184.52,18.53,200.99,20.41c0.83,0.09,1.56,0.59,1.94,1.34
		c1.11,2.15,5.07,6.56,18.39,6.56c13.31,0,17.28-4.41,18.39-6.56c0.39-0.75,1.11-1.24,1.94-1.34
		c16.47-1.87,163.35-16.54,200.99-20.41c5.11-0.53,9.09-4.7,9.4-9.88l9.54-226.33C854.41,281.28,848.94,275.96,842.5,276.6"/>
	<path class="st7" d="M842.5,272.85L613.75,295.6l-228.75-22.74c-6.44-0.64-11.91,4.68-11.51,11.19l9.54,226.33
		c0.32,5.17,4.29,9.35,9.4,9.88c37.64,3.87,184.52,18.53,200.99,20.41c0.83,0.09,1.56,0.59,1.94,1.34
		c1.11,2.15,5.07,6.56,18.39,6.56c13.31,0,17.28-4.41,18.39-6.56c0.39-0.75,1.11-1.24,1.94-1.34
		c16.47-1.87,163.35-16.54,200.99-20.41c5.11-0.53,9.09-4.7,9.4-9.88l9.54-226.33C854.41,277.54,848.94,272.21,842.5,272.85"/>
	<path class="st22" d="M614.61,293.95c-105.39-70.48-211.64-38.57-211.64-38.57v244.79c146.88-29.8,210.77,31.93,210.77,31.93
		s63.89-61.73,210.77-31.93V255.37C824.52,255.37,720,223.47,614.61,293.95"/>
	<path class="st23" d="M402.97,255.37c0,0-4.71,18.63-21.09,29.8l10.54,233.88c0,0,10.55-8.25,10.55-18.89V255.37z"/>
	<path class="st23" d="M824.52,255.37c0,0,4.71,18.63,21.09,29.8l-10.54,233.88c0,0-10.55-8.25-10.55-18.89V255.37z"/>
	<path class="st24" d="M392.43,519.05c0,0,146.51-33.53,212.01,25.54h9.3v-12.51c0,0-66.12-62.79-210.77-31.93L392.43,519.05z"/>
	<path class="st24" d="M835.07,519.05c0,0-146.51-33.53-212.01,25.54h-9.3v-12.51c0,0,66.12-62.79,210.77-31.93L835.07,519.05z"/>
	<path class="st25" d="M504.57,240.4c-12.7-1.26-25.3-1.76-37.3-1.88c-5.53-0.06-51.02,1.68-51.02,3.23v69.21v177.1
		c0-1.56,45.59-3.29,51.14-3.23c39.16,0.41,83.17,7.58,117.79,26.7c5.79,3.19,29.25,15.76,29.25,24.6V296.39
		c0-4.89-1.82-9.61-5.17-13.19C582.98,255.06,543.32,244.23,504.57,240.4"/>
	<path class="st0" d="M724.31,240.4c12.7-1.26,25.3-1.76,37.3-1.88c5.53-0.06,51.02,1.68,51.02,3.23v69.21v177.1
		c0-1.56-45.59-3.29-51.14-3.23c-39.16,0.41-83.17,7.58-117.79,26.7c-5.79,3.19-29.25,15.76-29.25,24.6V296.39
		c0-4.89,1.82-9.61,5.17-13.19C645.9,255.06,685.56,244.23,724.31,240.4"/>
	<g class="st26">
		<g>
			<defs>
				<rect id="SVGID_7_" x="614.44" y="238.51" width="198.19" height="297.62"/>
			</defs>
			<clipPath id="SVGID_8_">
				<use xlink:href="#SVGID_7_"  style="overflow:visible;"/>
			</clipPath>
			<path class="st27" d="M724.31,240.4c12.7-1.26,25.3-1.76,37.3-1.88c5.53-0.06,51.02,1.68,51.02,3.23v69.21v177.1
				c0-1.56-45.59-3.29-51.14-3.23c-39.16,0.41-83.17,7.58-117.79,26.7c-5.79,3.19-29.25,15.76-29.25,24.6V296.39
				c0-4.89,1.82-9.61,5.17-13.19C645.9,255.06,685.56,244.23,724.31,240.4"/>
		</g>
	</g>
	<g class="st26">
		<g>
			<defs>
				<rect id="SVGID_9_" x="614.44" y="308.24" width="123.31" height="227.89"/>
			</defs>
			<clipPath id="SVGID_10_">
				<use xlink:href="#SVGID_9_"  style="overflow:visible;"/>
			</clipPath>
			<path class="st28" d="M614.44,308.24v227.89c0-8.83,23.46-21.4,29.25-24.6c27.77-15.33,61.56-22.97,94.06-25.61l0-0.01
				C637.59,442.42,617.91,335.94,614.44,308.24"/>
		</g>
	</g>
	<path class="st3" d="M1018.95,298.71c-0.33-0.15-0.68-0.3-1.03-0.34c-3.27-0.41-5.22,1.33-8.46,1.83c-1.45,0.22-3.95-2.59-5.2,0.2
		c-0.46,1.03-1.24,3.71-2.21,5.92c-1.41,3.21-5.13,6.44-8.56,8.45c-13.48,7.91-28.74,11.93-43.95,15.43
		c-0.87,0.2-1.78,0.39-2.64,0.17c-1.54-0.4-2.44-1.96-3.19-3.37c-3.48-6.52-7.56-12.72-12.19-18.49
		c-4.13-5.15-8.82-10.06-14.76-12.92c-5.94-2.87-13.36-3.37-18.96,0.11c-4.19,2.61-6.99,7.34-7.24,12.27
		c-0.63,12.23,15.48,20.01,23.91,26.27c7.97,5.93,16.36,11.29,25.08,16.04c1.08,0.59,2.2,1.18,3.42,1.29
		c1.3,0.12,2.58-0.3,3.82-0.72c15.93-5.44,31.28-12.26,46.58-19.42c4.2-1.97,6.84-5.9,10.74-7.68c2.49-1.14,5.26-0.24,7.85-0.8
		c2.56-0.55,5.78-1.92,7.96-3.37c4.29-2.87,4.53-8.19,5.2-12.82c0.17-1.15,0.28-1.93-0.09-2.96c-0.6-1.67-2.04-2.61-3.45-3.59
		C1020.76,299.63,1019.88,299.11,1018.95,298.71"/>
	<path class="st13" d="M913.19,329.67c8.05-5.77,16.1-11.53,24.16-17.3c-0.52,0.37-23.93-38.14-25.41-40.38
		c-5.62-8.57-11.51-17.4-20.19-22.84c-18.54-11.61-41.97,5.15-34.84,26.63c7.74,23.32,25.02,45.65,45.23,59.51
		c0.44,0.3,0.91,0.61,1.44,0.65c0.73,0.06,1.39-0.39,1.99-0.81C908.1,333.31,910.64,331.49,913.19,329.67"/>
	<polygon class="st3" points="894.7,629.14 894.35,654.01 909.08,654.2 909.47,626.64 	"/>
	<path class="st2" d="M907.77,650.31l-12.81,4.23l-3.82,4.11l0.65,9.74l34.63,2.69c2.93-4.26,1.02-10.04-3.86-11.72l-1.61-0.55
		L907.77,650.31z"/>
	<polygon class="st3" points="788.54,605.31 778.78,628.18 792.33,633.95 803.15,608.6 	"/>
	<path class="st2" d="M792.08,634.38c-0.49-0.54-1.05-1.05-1.71-1.53c-1.63-1.19-14.76-8.15-15.89-5.01
		c-0.18,0.51-0.12,1.07-0.06,1.61c1.08,9.03,3.2,17.93,6.3,26.47c1.33,3.66,3.34,7.7,7.12,8.62c1.66,0.4,3.4,0.11,5.06-0.27
		c2.45-0.56,4.87-1.29,7.21-2.19c0.86-0.33,1.77-0.73,2.22-1.54c0.89-1.61-0.66-3.52-2.29-4.38c-1.62-0.87-3.61-1.49-4.4-3.15
		c-0.35-0.74-0.41-1.59-0.45-2.42C794.86,644.47,795.9,638.59,792.08,634.38"/>
	<path class="st6" d="M881.09,513.93c-4.83,22.1-18.65,37.98-33.41,54.23c-16.89,18.6-32.78,38.11-47.57,58.41
		c-6.39-2.67-12.79-5.33-19.18-8c5.35-31.06,20.08-59.55,31.49-88.93c7.93-20.41,14.36-42,14.71-64.06
		c0.17-10.97-2.48-21-3.91-31.67c-1.76-13.22-1.86-26.76-3.46-40.04c-0.53-4.45-0.84-9.72,2.59-12.61c1.52-1.29,3.53-1.83,5.49-2.21
		C900.56,364.97,890.28,471.91,881.09,513.93"/>
	<path class="st6" d="M821.86,398.04c-0.04-13.41,1.6-26.33,4.11-36.19c20.68-1.11,44.06,1.18,64.51,5.33
		c19.99,4.06,32.46,8.41,32.61,30.09c0.27,39.89,15.86,73.87,22.59,112.22c3.91,22.28-2.85,42.21-10.34,62.85
		c-8.57,23.61-15.87,47.69-21.85,72.09c-6.93-0.04-13.86-0.08-20.78-0.12c-6.84-30.76-4.02-62.72-4.6-94.23
		c-0.4-21.9-2.65-44.3-10.69-64.85c-8.84-22.58-21.58-13.59-36.2-26.69C826.99,445.81,821.93,421.2,821.86,398.04"/>
	<path class="st2" d="M845.35,244.52c-2.28,1.77-4.29,3.91-6.27,6.02c-1.78,1.89-3.55,3.79-5.33,5.68
		c-6.16,6.57-9.2,16.28-11.83,24.67c-13.88,44.13-18.88,104.69-9.86,150.8c34.2,2.95,73.78-5.67,107.9-10.33
		c3.32-0.45,7.08-1.2,8.8-4.07c1.04-1.74,1.07-3.88,1.07-5.91c0-29.28-6.19-60.74-11.99-89.6c-2.45-12.18-5.47-24.25-9.33-36.06
		c-4.09-12.5-8.71-26-18.3-35.45c-10.26-10.12-29.89-15.12-42.73-7.22C846.73,243.5,846.02,243.99,845.35,244.52"/>
	<path class="st3" d="M849.08,250.67c-0.62-3.98-1.24-7.96-1.85-11.94c-0.83-0.4-1.62-0.84-2.35-1.3
		c-14.26-9.11-38.18-58-0.17-68.95c34.52-9.94,32.72,37.55,25.99,57.35c-1.15,3.39-2.69,6.59-4.98,9.37
		c-1.56,1.9-1.91,1.54-1.69,3.74c0.22,2.13,2.34,4.54,2.82,6.79c0.51,2.4,0.32,5.05-1.07,7.07c-0.85,1.24-2.1,2.16-3.42,2.86
		c-2.11,1.12-4.56,1.73-6.9,1.29C852.66,256.4,849.52,253.52,849.08,250.67"/>
	<path class="st2" d="M878.8,207.89c-2.88,9.75-5.33,13.5-8.77,17.89c-7.21,9.2-1.22-23.4-4.2-34.7c-0.23-0.86-0.45-1.84,0.02-2.6
		c0.44-0.71,1.32-0.97,2.14-1.15C882.52,184.18,882.48,196.88,878.8,207.89"/>
	<path class="st2" d="M840.61,225.5c-2.33,3.28-7.44,2.4-11.04,0.59c-14.77-7.43-23.47-25.31-20.19-41.52
		c2.74-13.56,19.84-23.73,23.3-6.93c1.23,5.96-2.4,14.21-1.57,20.82C832.28,207.91,836.69,216.94,840.61,225.5"/>
	<path class="st2" d="M878.64,156.02c1.66,0.65,3.34,1.34,5.11,2.04c3.67,1.44,6.34,1.92,10.12-0.23c1.08-0.62,8.34-7.48,6.6-8.9
		c11.58,9.45,2.06,23.24-2.29,33c-2.93,6.58-3.53,15.87-10.11,20.17c-7.24,4.73-12.2-1.25-18.77-3.93
		c-5.79-2.36-12.06-3.64-17.96-5.75c-9.79-3.49-24.35-9.62-21.1-22.62c3.79-15.18,19.17-18.97,32.99-17.81
		C869.14,152.47,873.77,154.09,878.64,156.02"/>
	<path class="st4" d="M1033.35,448.06l-35.8-53.88V211.16c0-3.21,4.17-4.47,5.94-1.79l29.85,44.93V448.06z"/>
	<polygon class="st0" points="1031.75,256.08 1001.02,210.47 988.33,213.1 1025.16,259.22 1025.16,449.69 1031.75,448.06 	"/>
	<polygon class="st0" points="886.73,242.33 908.65,234.36 1025.16,259.22 1025.16,443.55 886.73,418.62 	"/>
	<path class="st5" d="M1015.39,453.76l-135.85-18.79c-3.03-0.6-5.22-3.26-5.22-6.35V248.04c0-4.08,3.73-7.14,7.73-6.35l133.34,18.3
		V453.76z"/>
	<path class="st29" d="M1033.35,254.29c-0.34,1.36-3.74,3.45-8.19,4.93c-4.81,1.61-9.06,1.92-9.72,0.74l-0.06,0.02v193.27
		c-0.04,0.15-0.04,0.29,0,0.42v0.09l0.03-0.01c0.54,1.25,4.86,0.95,9.74-0.68c4.93-1.65,8.58-4.03,8.19-5.35V254.29z"/>
	<polygon class="st22" points="988.33,213.1 988.33,251.36 1025.16,259.22 	"/>
	<polygon class="st24" points="1025.16,259.22 919.12,231.64 919.12,236.6 	"/>
	<polygon class="st30" points="890.4,398.22 1002.33,413.71 1002.33,438.77 890.4,423.29 	"/>
	<g class="st31">
		<g>
			<defs>
				<rect id="SVGID_11_" x="879.53" y="259.98" width="135.85" height="193.78"/>
			</defs>
			<clipPath id="SVGID_12_">
				<use xlink:href="#SVGID_11_"  style="overflow:visible;"/>
			</clipPath>
			<path class="st32" d="M879.53,434.97l135.85,18.79V259.98C1015.39,259.99,997.55,407.07,879.53,434.97"/>
		</g>
	</g>
	<path class="st3" d="M959.29,379.05c-0.25-0.27-0.51-0.54-0.81-0.72c-2.83-1.68-5.31-0.86-8.49-1.7c-1.42-0.37-2.59-3.95-4.85-1.9
		c-0.83,0.76-2.62,2.91-4.38,4.55c-2.57,2.38-7.28,3.85-11.22,4.33c-15.51,1.87-31.11-0.53-46.46-3.39
		c-0.88-0.16-1.79-0.35-2.49-0.89c-1.26-0.98-1.45-2.77-1.58-4.36c-0.59-7.37-1.86-14.68-3.8-21.82
		c-1.73-6.36-4.08-12.74-8.38-17.74c-4.3-5-10.9-8.42-17.43-7.46c-4.89,0.72-9.34,3.94-11.54,8.37
		c-5.46,10.96,6.21,24.53,11.44,33.63c4.95,8.61,10.5,16.88,16.6,24.72c0.75,0.97,1.54,1.95,2.62,2.55
		c1.14,0.63,2.49,0.76,3.79,0.86c16.77,1.37,33.58,1.24,50.46,0.78c4.64-0.13,8.62-2.68,12.91-2.76c2.74-0.05,4.92,1.88,7.52,2.4
		c2.57,0.52,6.07,0.55,8.65,0.08c5.08-0.92,7.42-5.7,9.88-9.68c0.61-0.99,1.03-1.66,1.1-2.75c0.12-1.77-0.83-3.21-1.73-4.67
		C960.58,380.62,959.98,379.8,959.29,379.05"/>
	<path class="st2" d="M849.95,365.25c9.68-2.08,19.37-4.15,29.05-6.23c-0.62,0.13-6.73-44.52-7.19-47.17
		c-1.74-10.1-3.61-20.55-9.41-29c-12.37-18.04-40.54-12.02-42.57,10.52c-2.21,24.47,4.74,51.84,17.73,72.62
		c0.28,0.45,0.59,0.92,1.06,1.17c0.64,0.35,1.43,0.2,2.15,0.05C843.84,366.56,846.9,365.9,849.95,365.25"/>
	<path class="st2" d="M503.32,622.6c-1.21-10.46-6.45-18.76-16.13-23.31c-7.85-3.69-16.68-4.55-25.29-5.66
		c-19.17-2.46-37.46-4.92-56.81-4.16c-15.47,0.61-25.01,13.81-32.26,26.83c-4.56,8.21-3.3,12.06,2.45,18.93
		c5.3,6.34,11.73,11.73,18.91,15.81c14.22,8.08,36.07,6.08,51.73,4.34c14.78-1.65,29.25-6.06,42.44-12.95
		C496.85,638.01,504.5,632.79,503.32,622.6"/>
	<path class="st2" d="M406.5,651.03c-2.57,6.01-4.81,12.16-6.72,18.41c-1.01,3.31-1.93,6.71-1.81,10.17
		c0.3,8.09,9.3,13.96,15.19,6.47c2.58-3.28,4.64-6.96,6.11-10.86c2.16-5.76-2.4-2.4-6.25-4.17c-4.43-2.04-4.33-3.62-2.44-7.78
		c2.43-5.35,5.3-8.84,4.95-15c-0.09-1.7-0.58-3.67-2.14-4.34c-1.19-0.5-2.61-0.01-3.56,0.87c-0.94,0.88-1.51,2.09-2.04,3.27
		C407.35,649.05,406.92,650.04,406.5,651.03"/>
	<path class="st33" d="M436.53,460.61c5.22,0.51,10.44,1.01,15.67,1.52c0.8-4.6,1.28-9.28,1.42-13.98c4.55-0.79,9.9-2.28,11.47-7.14
		c0.49-1.53,0.51-3.2,0.53-4.83c0.06-6.74,0.12-13.48,0.18-20.22c0.02-2.33,0.03-4.73-0.75-6.9c-1.37-3.8-4.85-6.07-8.26-7.5
		c-8.72-3.65-18.89-3.52-26.95,1.63c-2.14,1.37-4.17,3.14-5.41,5.54c-1.91,3.7-1.68,8.27-1.39,12.54c0.27,3.94,0.53,7.89,0.8,11.83
		c0.31,4.54,0.96,9.76,4.41,12.16c1.83,1.28,4.2,1.51,5.77,3.16C436.79,451.34,435.51,456.5,436.53,460.61"/>
	<path class="st2" d="M457.93,408.71c0.22,0.37,0.41,0.75,0.55,1.14c0.76,2.08,0.31,4.45,1.06,6.54c1.18,3.31,5.1,5.24,5.75,8.69
		c0.53,2.82-1.36,5.55-1.47,8.42c-0.12,3.14,1.94,6.06,1.68,9.16c-0.22,2.69-1.86,6.5-3.42,8.68c0.48-0.68,4.99-0.52,6.14-1.25
		c1.77-1.12,1.96-1.81,2.46-3.69c0.5-1.86,0.05-3.67,0.84-5.58c0.97-2.34,3.01-4.08,3.69-6.58c0.93-3.4-0.93-6.93-0.85-10.46
		c0.12-5.33,4.63-10.44,2.87-15.47c-1.03-2.95-3.95-4.8-5.62-7.45c-1.27-2.01-1.77-4.4-2.66-6.6c-0.89-2.2-2.4-4.39-4.69-5.03
		c-1.27-0.35-2.63-0.17-3.93-0.39c-2.25-0.38-4.14-1.89-6.32-2.59c-3.11-0.99-8.51,2.23-10.27,4.89c-1.74,2.63-0.8,4.83,1.07,7.09
		C447.92,402.03,455.33,404.4,457.93,408.71"/>
	<path class="st2" d="M413.55,394.14c-1.83,1.39-4.1,2.41-5.76,4.03c-3.24,3.16-3.78,8.12-3.82,12.65
		c-0.03,4.03-1.73,7.64-1.22,11.83c0.34,2.81,1.59,5.64,3.92,7.27c2.89,2.02,7.39,2.28,8.72,5.55c1.45,3.55-2.18,8.12,0.13,11.18
		c1.27,1.69,3.71,1.9,5.5,3.02c2,1.25,3.06,3.52,4.31,5.53c1.25,2.01,3.1,4,5.46,4.01c0.03-3.59,0.09-6.44-1.5-9.69
		c-0.93-1.9-3.62-5.38-1.64-7.48c1.24-1.74,4.24-2.36,4.28-4.5c0.02-1.01-0.7-1.85-1.27-2.68c-2.2-3.21-2.49-7.54-1.11-11.17
		c1.39-3.64,4.33-6.57,7.8-8.33c4.07-2.06,3.39-3.05,4.51-7c1.03-3.64,3.07-4.52,6.3-5.9c2.9-1.24,3.83-1.99,4.86-4.74
		c0.75-2.02,1.68-4.43,0.5-6.64c-0.94-1.76-2.6-3-4.21-4.18c-3.36-2.47-7.13-5.06-11.28-4.69c-2.31,0.21-4.46,1.33-6.77,1.5
		c-1.54,0.12-3.08-0.2-4.62-0.22c-2.63-0.04-5.39,0.81-7.49,2.41c-2.12,1.62-2.03,3.27-3.18,5.53
		C415.39,392.54,414.53,393.39,413.55,394.14"/>
	<path class="st2" d="M422.6,379.22c0.36-2.51,0.04-5.76-2.36-6.56c-1.32-0.44-2.77,0.09-4.14-0.16c-2.91-0.54-3.96-4.03-5.52-6.54
		c-0.23-0.38-0.51-0.76-0.92-0.93c-0.58-0.25-1.24-0.01-1.87,0.08c-2.88,0.4-5.12-2.4-7.85-3.39c-3.38-1.22-7.58,0.96-8.53,4.43
		c-0.39,1.42-0.29,2.95-0.66,4.38c-1.48,5.8-9.89,8.41-10,14.39c-0.07,4.05,3.95,7.85,2.48,11.62c-0.94,2.41-3.99,4.1-3.59,6.65
		c0.26,1.65,2.03,2.74,3.7,2.68c1.66-0.05,3.18-0.99,4.41-2.11c1.96-1.77,3.42-4.03,5.28-5.9c1.86-1.87,4.36-3.41,6.99-3.13
		c2.54,0.27,4.88,2.21,7.39,1.74c2.01-0.37,3.48-2.2,5.45-2.74c1.85-0.51,3.79,0.19,5.7,0.27c1.91,0.08,4.24-0.96,4.26-2.87
		c0-0.46-0.13-0.94,0-1.38c0.39-1.24,2.5-1.21,2.87-2.45c-1.02-1.52-2.42-0.94-3.17-2.94C421.94,382.81,422.37,380.79,422.6,379.22"
		/>
	<path class="st0" d="M450.7,455.55c7.29-0.97,14.69-2.29,20.8,0.37c5.17,2.25,5.08,8.78,6.24,13.72
		c3.83,16.33,6.7,32.86,8.95,49.48c1.08,7.95,2.94,16.45,2.89,24.48c-0.04,6.44-1.65,12.7-1.15,19.26
		c0.38,5.04,2.52,10.49,7.14,12.55c2.32,1.04,4.99,1.09,7.32,2.11c2.33,1.03,4.32,3.77,3.15,6.03c-0.56,1.07-1.67,1.72-2.73,2.31
		c-5.76,3.21-11.52,6.42-17.28,9.63c-4.4,2.45-8.82,4.92-13.56,6.62c-6.72,2.41-13.9,3.23-21.02,3.6c-18.41,0.94-36.96-1.1-54.72-6
		c-9.56-2.64-18.8-7.32-16.48-18.14c2.39-11.14,7.01-22.25,11.99-32.45c6.03-12.35,7.82-27.22,12.09-40.25
		c4.33-13.2,8.91-26.32,13.52-39.43c0.02-0.05,0.04-0.1,0.05-0.15c1.69-4.79,2.38-9.53,6.09-13.42c5.08-5.32,7.53-1.09,13.3-0.01
		C441.46,456.65,446.06,456.17,450.7,455.55"/>
	<path class="st33" d="M468.6,657.66c1.66,0.09,3.32,0.18,4.98,0.27c1.8,0.1,3.81,0.12,5.16-1.08c1.64-1.47,1.45-4.26,0.13-6.01
		c-1.33-1.76-3.46-2.7-5.56-3.37c-5.06-1.62-10.42-2.12-15.73-2.33c-0.53-0.02-1.08-0.04-1.58,0.16c-0.86,0.35-1.35,1.26-1.64,2.14
		C451.33,656.58,462.15,657.31,468.6,657.66"/>
	<path class="st33" d="M404.76,673.25c-0.09,0.74-0.17,1.52,0.14,2.2c0.23,0.49,0.65,0.86,1.11,1.15c3.42,2.18,8.02-0.17,10.64-3.27
		c2.62-3.1,4.39-7.02,7.73-9.32c7.65-5.27,0.65-14.91-7.35-12.7C407.71,653.89,405.75,665.1,404.76,673.25"/>
	<path class="st2" d="M507.81,623.58c6.6-4.85,13.23-10.35,15.64-18.53s-0.99-19.72-9.51-24.43c-10.39-5.75-20.59,1.32-28,7.98
		c-15.17,13.64-31.71,25.7-47.88,38.17c-5.46,4.22-24.42,19.74-24.42,19.74c-0.52,2.19,9.67,21.98,12.37,21.26
		C455.5,659.98,484.19,640.94,507.81,623.58"/>
	<path class="st2" d="M359.37,632.98c-6.47-3.15-12.97-6.94-15.53-14.5c-2.56-7.56,0.35-20,8.36-26.93
		c9.77-8.45,19.74-4.02,27.03,0.74c14.93,9.73,31.12,17.52,46.97,25.82c5.36,2.81,23.97,13.44,23.97,13.44
		c0.57,2.06-8.58,24.52-11.19,24.49C410.53,655.88,382.5,644.24,359.37,632.98"/>
	<path class="st2" d="M457.48,661.66c5.94,2.89,12.04,5.46,18.26,7.7c3.29,1.18,6.68,2.29,10.18,2.33c8.18,0.1,14.55-8.7,7.29-15.02
		c-3.18-2.77-6.79-5.04-10.66-6.71c-5.71-2.47-2.55,2.3-4.52,6.1c-2.28,4.38-3.87,4.19-7.97,2.08c-5.28-2.72-8.66-5.79-14.9-5.74
		c-1.72,0.01-3.74,0.4-4.49,1.95c-0.57,1.18-0.14,2.64,0.7,3.64c0.84,1,2.03,1.62,3.2,2.22
		C455.52,660.69,456.5,661.18,457.48,661.66"/>
	<path class="st33" d="M542.82,552.66c-0.09-0.39-0.19-0.79-0.17-1.18c0.18-3.61,2.44-5.38,3.6-8.78c0.52-1.52-2.04-4.76,1.21-5.58
		c3.37-0.84,9.89-0.27,12.17-3.36c1.01-1.36,2.25-3.16,3.9-2.75c0.56,0.14,1.03,0.53,1.44,0.94c13.8,13.34,0.38,29.42-14.65,28.91
		c-1.28-0.04-2.14-0.07-3.18-0.66c-1.69-0.97-2.42-2.71-3.21-4.41C543.47,554.78,543.08,553.73,542.82,552.66"/>
	<path class="st0" d="M569.26,555.06c3.42,1.43,7.61-0.02,9.95-2.89c2.34-2.87,2.99-6.86,2.39-10.51c-0.6-3.65-2.35-7.03-4.37-10.13
		c-2.4-3.67-5.42-7.21-9.52-8.77c-2.29-0.87-4.77-1.07-7.21-1.13c-1.65-0.04-3.48,0.06-4.67,1.21c-0.85,0.82-1.2,2.03-1.45,3.18
		c-1.65,7.51-0.35,8.6,4.57,13.6C563.31,544.06,566.5,549.53,569.26,555.06"/>
	<path class="st22" d="M342.74,472.82v-11.53c0,0,61.84-5.75,99.03,19.02L342.74,472.82z"/>
	<path class="st0" d="M330.07,471.59l8.28-6.38c0,0,50.57-9.66,103.41,15.1v137.48c0,0-35.83-25.76-111.69-15.65V471.59z"/>
	<path class="st22" d="M540.79,472.82v-11.53c0,0-61.84-5.75-99.03,19.02L540.79,472.82z"/>
	<path class="st0" d="M553.46,471.59l-8.28-6.38c0,0-50.57-9.66-103.41,15.1v137.48c0,0,35.83-25.76,111.69-15.65V471.59z"/>
	<path class="st5" d="M441.78,480.24c5.76-0.31,10.15-1.68,10.39-3.35c0-0.03,0.04-0.07,0.1-0.11c-0.03-0.01-0.06-0.02-0.09-0.04
		c0.1-0.02,0.2-0.05,0.29-0.07c1.64-0.73,9.36-2.28,11.71-2.78c0.17-0.04,0.33-0.07,0.5-0.11c0.04-0.01,0.07-0.02,0.09-0.02
		c6.55-1.65,13.2-2.87,19.89-3.76c25.39-3.98,44.02-3.27,54.51-1.73c3.91,0.48,7.73,1.27,11.37,2.52c0.67,0.23,1.3,0.49,1.89,0.8
		c0.01,0,0.01,0,0.01,0l0,0c1.25,0.66,2.31,1.54,3.12,2.85c1.09,1.76,1.14,3.48,1.14,5.47v121.42c0,3.43-2.83,6.82-6.2,6.2
		c-20.73-3.82-37.62-3.69-50.61-2.77c-13.69,0.97-27.35,3.05-40.6,6.66c-4.32,1.18-9.72,2.1-13.68,4.23
		c-0.38,0.2-0.79,0.35-1.22,0.44c-0.27,0.05-0.55,0.08-0.83,0.08c-0.33,0-0.66-0.04-0.97-0.11c-0.31-0.12-0.63-0.23-0.96-0.35
		c-1.43-0.71-2.41-2.19-2.41-3.89V483.2C439.2,482.17,440.1,481.17,441.78,480.24"/>
	<path class="st5" d="M441.8,480.24c-5.76-0.31-10.15-1.68-10.39-3.35c0-0.03-0.04-0.07-0.1-0.11c0.03-0.01,0.06-0.02,0.09-0.04
		c-0.1-0.02-0.2-0.05-0.3-0.07c-1.64-0.73-9.36-2.28-11.71-2.78c-0.17-0.04-0.33-0.07-0.5-0.11c-0.04-0.01-0.07-0.02-0.09-0.02
		c-6.55-1.65-13.2-2.87-19.89-3.76c-25.39-3.98-44.02-3.27-54.51-1.73c-3.91,0.48-7.73,1.27-11.37,2.52
		c-0.67,0.23-1.3,0.49-1.89,0.8c-0.01,0-0.01,0-0.01,0l0,0c-1.25,0.66-2.31,1.54-3.12,2.85c-1.09,1.76-1.14,3.48-1.14,5.47v121.42
		c0,3.43,2.83,6.82,6.2,6.2c20.73-3.82,37.62-3.69,50.61-2.77c13.69,0.97,27.35,3.05,40.6,6.66c4.32,1.18,9.72,2.1,13.68,4.23
		c0.38,0.2,0.79,0.35,1.22,0.44c0.27,0.05,0.55,0.08,0.83,0.08c0.33,0,0.66-0.04,0.97-0.11c0.31-0.12,0.63-0.23,0.96-0.35
		c1.43-0.71,2.41-2.19,2.41-3.89V483.2C444.38,482.17,443.47,481.17,441.8,480.24"/>
	<g class="st34">
		<g>
			<defs>
				<rect id="SVGID_13_" x="342.74" y="501.21" width="101.64" height="114.96"/>
			</defs>
			<clipPath id="SVGID_14_">
				<use xlink:href="#SVGID_13_"  style="overflow:visible;"/>
			</clipPath>
			<path class="st35" d="M431.37,501.21c0,0-12.33,80.26-88.63,104.78v0c16.38-2.21,30.04-2,40.95-1.23
				c13.69,0.97,27.35,3.05,40.6,6.66c4.32,1.18,9.72,2.1,13.68,4.23c0.38,0.2,0.79,0.35,1.22,0.44c0.27,0.05,0.55,0.08,0.83,0.08
				c0.33,0,0.66-0.04,0.97-0.11c0.31-0.12,0.63-0.23,0.96-0.35c1.43-0.71,2.41-2.19,2.41-3.89V501.21H431.37z"/>
		</g>
	</g>
	<path class="st36" d="M441.82,479.98c-5.77,0-10.44-1.64-10.42-3.23l-0.03,137.47c0,1.97,4.68,3.57,10.44,3.57
		c5.77,0,10.44-1.6,10.44-3.57l0-137.43C451.75,478.6,447.59,479.98,441.82,479.98"/>
	<g class="st37">
		<g>
			<defs>
				<rect id="SVGID_15_" x="326.88" y="467.05" width="229.82" height="15.21"/>
			</defs>
			<clipPath id="SVGID_16_">
				<use xlink:href="#SVGID_15_"  style="overflow:visible;"/>
			</clipPath>
			<path class="st38" d="M555.56,474.44c-0.81-1.31-1.87-2.19-3.12-2.85v0c0,0,0,0-0.01,0c-0.59-0.31-1.22-0.57-1.89-0.8
				c-3.64-1.25-7.46-2.04-11.37-2.52c-10.48-1.53-29.12-2.24-54.51,1.73c-6.69,0.89-13.34,2.11-19.89,3.76
				c-0.03,0.01-0.06,0.01-0.09,0.02c-0.16,0.04-0.33,0.07-0.5,0.11c-2.35,0.5-10.07,2.05-11.71,2.78c-0.1,0.03-0.2,0.05-0.3,0.07
				c0.03,0.01,0.06,0.02,0.09,0.04c-0.06,0.04-0.09,0.08-0.1,0.11c-0.02,0.12-0.06,0.24-0.12,0.35c-1.03,1.58-4.96,2.73-10.23,2.73
				c-5.53,0-10.05-1.51-10.39-3.03c0-0.02-0.01-0.04-0.01-0.05c0,0,0,0,0,0c-0.01-0.05-0.01-0.09-0.01-0.14v0.12
				c-0.01-0.02-0.04-0.05-0.09-0.08c0.03-0.01,0.06-0.02,0.09-0.04c-0.1-0.03-0.2-0.05-0.3-0.07c-1.64-0.73-9.36-2.28-11.71-2.78
				c-0.17-0.04-0.33-0.07-0.5-0.11c-0.04-0.01-0.07-0.02-0.09-0.02c-6.55-1.65-13.2-2.87-19.89-3.76
				c-25.39-3.98-44.02-3.27-54.51-1.73c-3.91,0.48-7.73,1.27-11.37,2.52c-0.67,0.23-1.3,0.49-1.89,0.8c-0.01,0-0.01,0-0.01,0v0
				c-1.25,0.66-2.31,1.54-3.12,2.85c-1.09,1.76-1.14,3.48-1.14,5.47v2.28c0-1.99,0.05-3.71,1.14-5.47c0.81-1.31,1.87-2.19,3.12-2.85
				v0c0,0,0,0,0.01,0c0.59-0.31,1.22-0.57,1.89-0.8c3.64-1.25,7.46-2.04,11.37-2.52c10.48-1.53,29.12-2.24,54.51,1.73
				c6.69,0.89,13.34,2.11,19.89,3.76c0.03,0.01,0.06,0.01,0.09,0.02c0.17,0.04,0.33,0.07,0.5,0.11c2.35,0.5,10.07,2.05,11.71,2.78
				c0.1,0.02,0.2,0.05,0.3,0.07c0,0.05,0,0.09,0.01,0.14c0,0,0,0,0,0c0,0.02,0.01,0.04,0.01,0.05c0.34,1.52,4.86,3.03,10.39,3.03
				c5.27,0,9.2-1.15,10.23-2.73c0.06-0.12,0.1-0.23,0.12-0.35c0-0.03,0.04-0.07,0.1-0.11c-0.03-0.01-0.06-0.02-0.09-0.04
				c0.1-0.02,0.2-0.05,0.3-0.07c1.64-0.73,9.36-2.28,11.71-2.78c0.17-0.04,0.33-0.07,0.5-0.11c0.04-0.01,0.07-0.02,0.09-0.02
				c6.55-1.65,13.2-2.87,19.89-3.76c25.39-3.98,44.02-3.27,54.51-1.73c3.91,0.48,7.73,1.27,11.37,2.52c0.67,0.23,1.3,0.49,1.89,0.8
				c0.01,0,0.01,0,0.01,0v0c1.25,0.66,2.31,1.54,3.12,2.85c1.09,1.76,1.14,3.48,1.14,5.47v-2.28
				C556.7,477.92,556.64,476.2,555.56,474.44"/>
		</g>
	</g>
	<g class="st34">
		<g>
			<defs>
				<rect id="SVGID_17_" x="431.37" y="476.75" width="7.83" height="140.92"/>
			</defs>
			<clipPath id="SVGID_18_">
				<use xlink:href="#SVGID_17_"  style="overflow:visible;"/>
			</clipPath>
			<path class="st39" d="M431.4,476.75l-0.03,137.47c0,1.66,3.33,3.06,7.83,3.45V479.86C434.7,479.46,431.38,478.09,431.4,476.75"/>
		</g>
	</g>
	<path class="st36" d="M537.9,483.43c-10.1-1.48-28.05-2.16-52.5,1.67c-4.65,0.62-12.75,2.27-16.96,3.16
		c-1.58,0.33-2.71,1.72-2.71,3.34v27.77c0,2.18,2.02,3.79,4.15,3.33c9.93-2.16,20.61-5.19,32.92-5.94
		c10.53-0.64,20.96-0.95,36.76,1.19c2.05,0.28,3.87-1.31,3.87-3.38v-27.38c0-1.67-1.2-3.09-2.85-3.37
		C539.69,483.67,538.8,483.54,537.9,483.43"/>
	<path class="st33" d="M346.29,539.4c0.09-0.39,0.19-0.79,0.17-1.18c-0.18-3.61-2.44-5.38-3.6-8.78c-0.52-1.52,2.04-4.76-1.21-5.58
		c-3.37-0.84-9.89-0.27-12.17-3.36c-1.01-1.36-2.25-3.16-3.9-2.75c-0.56,0.14-1.03,0.53-1.44,0.94
		c-13.8,13.34-0.38,29.42,14.65,28.91c1.28-0.04,2.14-0.07,3.18-0.66c1.69-0.97,2.42-2.71,3.21-4.41
		C345.64,541.53,346.03,540.48,346.29,539.4"/>
	<path class="st0" d="M319.85,541.81c-3.42,1.43-7.61-0.02-9.95-2.89c-2.34-2.87-2.99-6.86-2.39-10.51
		c0.6-3.65,2.35-7.03,4.37-10.13c2.4-3.67,5.42-7.21,9.52-8.77c2.29-0.87,4.77-1.07,7.21-1.13c1.65-0.04,3.48,0.06,4.67,1.21
		c0.85,0.82,1.2,2.03,1.45,3.18c1.65,7.51,0.35,8.6-4.57,13.6C325.8,530.8,322.61,536.28,319.85,541.81"/>
	<path class="st3" d="M684.19,265.72c-0.28-0.18-0.58-0.38-0.79-0.61c-1.94-2.2-1.47-4.27-2.65-6.8c-0.53-1.13-4.06-1.85-2.39-3.82
		c0.62-0.73,2.43-2.32,3.76-3.87c2.42-2.81,0.16-6.89,2.69-10.05c2.17-2.71,10-5.21,12.74-1.23c1.03,1.5-0.4,3.91-0.18,5.53
		c0.34,2.49,2.35,4.16,3.26,6.47c0.81,2.06,1.26,4.91,1.14,7.03c-0.24,4.2-4.49,6.42-7.95,8.68c-0.86,0.56-1.44,0.95-2.47,1.08
		c-1.66,0.21-3.14-0.47-4.63-1.1C685.83,266.67,684.97,266.23,684.19,265.72"/>
	<path class="st5" d="M706.59,253.76c3.26-1.58,4.92-5.6,4.34-9.18c-0.59-3.58-3.09-6.64-6.16-8.57c-3.07-1.92-6.68-2.83-10.27-3.36
		c-4.25-0.62-8.8-0.7-12.61,1.3c-2.12,1.11-3.88,2.8-5.5,4.56c-1.1,1.19-2.21,2.59-2.14,4.21c0.05,1.16,0.71,2.19,1.4,3.13
		c4.44,6.08,6.09,5.84,12.94,5.46C694.65,250.99,700.74,252.19,706.59,253.76"/>
	<path class="st3" d="M533.99,259.64c0.31-0.14,0.63-0.28,0.87-0.48c2.27-1.85,2.15-3.97,3.73-6.27c0.71-1.03,4.31-1.15,2.99-3.38
		c-0.49-0.82-2.02-2.69-3.08-4.43c-1.93-3.17,0.97-6.82-1-10.35c-1.7-3.03-9.01-6.79-12.37-3.3c-1.26,1.3-0.25,3.92-0.73,5.48
		c-0.74,2.4-3,3.72-4.27,5.85c-1.13,1.9-2.05,4.63-2.28,6.75c-0.45,4.18,3.37,7.07,6.42,9.87c0.76,0.7,1.27,1.17,2.26,1.47
		c1.61,0.48,3.17,0.05,4.75-0.33C532.21,260.3,533.13,260.01,533.99,259.64"/>
	<path class="st5" d="M513.86,244.16c-2.96-2.09-3.94-6.33-2.77-9.76c1.17-3.43,4.14-6.05,7.49-7.44c3.35-1.39,7.05-1.7,10.68-1.63
		c4.3,0.08,8.8,0.76,12.22,3.35c1.91,1.45,3.37,3.4,4.68,5.41c0.89,1.35,1.76,2.92,1.42,4.5c-0.24,1.13-1.06,2.05-1.89,2.86
		c-5.38,5.27-6.96,4.76-13.66,3.27C526.08,243.39,519.88,243.58,513.86,244.16"/>
</g>
</svg>
