<?xml version="1.0" encoding="iso-8859-1"?>
<!-- Generator: Adobe Illustrator 19.0.0, SVG Export Plug-In . SVG Version: 6.00 Build 0)  -->
<svg version="1.1" id="Capa_1" xmlns="http://www.w3.org/2000/svg" xmlns:xlink="http://www.w3.org/1999/xlink" x="0px" y="0px"
	 viewBox="0 0 512.001 512.001" style="enable-background:new 0 0 512.001 512.001;" xml:space="preserve">
<polygon style="fill:#FBDF97;" points="301.155,369.101 503.932,199.8 503.932,496.356 "/>
<polygon style="fill:#FBC640;" points="3.085,494.727 205.73,367.34 206.257,366.689 305.161,366.854 508.924,494.727 "/>
<polygon style="fill:#FBDF97;" points="8.065,199.8 210.036,368.434 208.442,370.399 8.065,496.359 "/>
<g>
	<polygon style="fill:#FBC640;" points="6.488,203.738 80.301,164.506 80.301,261.106 78.185,263.598 	"/>
	<polygon style="fill:#FBC640;" points="431.597,261.103 431.597,164.509 505.512,203.736 433.75,263.653 	"/>
</g>
<rect x="284.192" y="170.121" style="fill:#CCCCCC;" width="75.321" height="109.755"/>
<path style="fill:#EFEFEF;" d="M206.484,370.723L75.089,261.014l1.179-1.389V17.27H435.63v242.356l1.215,1.441l-131.536,109.82
	L206.484,370.723z M355.48,275.842V174.154h-67.254v101.688H355.48z"/>
<path d="M511.912,202.849c-0.012-0.099-0.029-0.196-0.044-0.292c-0.052-0.341-0.123-0.679-0.211-1.013
	c-0.019-0.072-0.034-0.144-0.054-0.216c-0.115-0.399-0.253-0.795-0.418-1.181c-0.019-0.044-0.042-0.087-0.063-0.13
	c-0.145-0.326-0.31-0.643-0.491-0.956c-0.056-0.098-0.115-0.194-0.175-0.289c-0.166-0.264-0.347-0.522-0.539-0.775
	c-0.064-0.084-0.122-0.169-0.189-0.251c-0.025-0.031-0.045-0.065-0.072-0.095c-0.24-0.287-0.494-0.555-0.757-0.809
	c-0.044-0.042-0.093-0.081-0.137-0.122c-0.268-0.249-0.547-0.479-0.834-0.693c-0.076-0.056-0.153-0.112-0.231-0.166
	c-0.324-0.227-0.655-0.437-0.999-0.621c-0.019-0.01-0.035-0.023-0.053-0.033l-0.049-0.026c-0.033-0.017-0.066-0.035-0.099-0.052
	L443.699,161.8V19.287c0-5.568-4.515-10.083-10.083-10.083H78.284c-5.568,0-10.083,4.515-10.083,10.083v142.515L5.498,195.129
	c-0.028,0.014-0.055,0.03-0.084,0.044l-0.065,0.034c-0.024,0.012-0.044,0.029-0.068,0.042c-0.336,0.181-0.661,0.387-0.978,0.609
	c-0.082,0.056-0.161,0.114-0.241,0.173c-0.283,0.212-0.559,0.439-0.822,0.684c-0.047,0.044-0.099,0.084-0.146,0.129
	c-0.262,0.252-0.514,0.518-0.752,0.804c-0.025,0.03-0.046,0.064-0.072,0.095c-0.069,0.085-0.13,0.174-0.197,0.261
	c-0.191,0.249-0.368,0.503-0.531,0.764c-0.062,0.098-0.121,0.196-0.179,0.295c-0.179,0.311-0.343,0.626-0.487,0.949
	c-0.02,0.046-0.044,0.09-0.065,0.136c-0.165,0.386-0.302,0.778-0.416,1.178c-0.021,0.074-0.036,0.148-0.055,0.222
	c-0.088,0.334-0.157,0.67-0.21,1.008c-0.015,0.099-0.032,0.196-0.044,0.295c-0.051,0.411-0.084,0.824-0.085,1.236
	c0,0-0.002,0.016-0.002,0.024v288.599c0,0.088,0.011,0.173,0.013,0.261c0.005,0.203,0.013,0.405,0.03,0.608
	c0.012,0.139,0.029,0.277,0.047,0.415c0.024,0.187,0.05,0.373,0.086,0.559c0.028,0.153,0.062,0.303,0.097,0.454
	c0.038,0.164,0.08,0.329,0.126,0.492c0.048,0.167,0.102,0.332,0.158,0.495c0.049,0.142,0.1,0.284,0.155,0.426
	c0.071,0.178,0.148,0.353,0.229,0.526c0.057,0.124,0.115,0.247,0.178,0.37c0.094,0.182,0.196,0.36,0.3,0.535
	c0.044,0.075,0.08,0.151,0.126,0.226c0.02,0.032,0.045,0.059,0.067,0.092c0.216,0.335,0.446,0.659,0.698,0.965
	c0.037,0.046,0.081,0.086,0.119,0.131c0.211,0.246,0.433,0.481,0.665,0.705c0.106,0.102,0.216,0.199,0.326,0.295
	c0.186,0.163,0.377,0.32,0.575,0.47c0.111,0.084,0.22,0.17,0.334,0.249c0.306,0.213,0.62,0.414,0.95,0.594
	c0.005,0.003,0.011,0.005,0.016,0.008c0.335,0.18,0.683,0.337,1.038,0.48c0.088,0.035,0.177,0.065,0.266,0.098
	c0.278,0.103,0.562,0.194,0.851,0.271c0.102,0.028,0.204,0.054,0.307,0.079c0.286,0.068,0.577,0.121,0.872,0.163
	c0.099,0.014,0.196,0.033,0.294,0.045c0.37,0.042,0.745,0.069,1.127,0.071c0.014,0,0.028,0.002,0.042,0.002
	c0.005,0,0.01-0.001,0.014-0.001h491.785c0.005,0,0.009,0.001,0.014,0.001c0.014,0,0.028-0.002,0.042-0.002
	c0.381-0.001,0.757-0.028,1.128-0.071c0.099-0.011,0.196-0.03,0.293-0.044c0.295-0.042,0.588-0.097,0.874-0.164
	c0.102-0.024,0.203-0.051,0.305-0.079c0.292-0.079,0.578-0.17,0.859-0.274c0.086-0.031,0.172-0.06,0.258-0.095
	c0.714-0.286,1.387-0.65,2.011-1.085c0.111-0.078,0.218-0.161,0.326-0.243c0.201-0.153,0.396-0.312,0.585-0.479
	c0.107-0.095,0.214-0.189,0.317-0.288c0.241-0.232,0.472-0.475,0.689-0.731c0.031-0.037,0.066-0.07,0.097-0.107
	c0.255-0.308,0.485-0.635,0.702-0.972c0.02-0.031,0.045-0.058,0.066-0.091c0.044-0.071,0.079-0.145,0.121-0.216
	c0.107-0.18,0.21-0.36,0.306-0.547c0.062-0.12,0.118-0.241,0.174-0.363c0.082-0.175,0.159-0.351,0.231-0.532
	c0.055-0.14,0.106-0.281,0.155-0.422c0.056-0.164,0.11-0.329,0.158-0.496c0.047-0.163,0.088-0.327,0.126-0.492
	c0.035-0.15,0.068-0.299,0.096-0.452c0.034-0.187,0.062-0.373,0.086-0.56c0.017-0.137,0.034-0.274,0.046-0.414
	c0.017-0.203,0.026-0.404,0.031-0.607c0.002-0.087,0.013-0.171,0.013-0.259V204.113c0-0.008-0.002-0.016-0.002-0.016
	C511.997,203.673,511.964,203.261,511.912,202.849z M20.165,225.665l169.993,141.936L20.165,474.461V225.665z M210.24,378.796
	l91.429,0.151l165.21,103.679H45.069L210.24,378.796z M321.701,367.71l170.132-142.046v248.814L321.701,367.71z M483.939,205.985
	l-40.242,33.598v-54.955L483.939,205.985z M423.531,29.37v138.544c0,0.02,0,0.04,0,0.06v88.445L300.93,358.78l-90.049-0.149
	L88.368,256.339v-88.37c0-0.02,0-0.04,0-0.061V29.37H423.531z M68.201,239.501l-40.149-33.522l40.149-21.339V239.501z"/>
<path d="M154.502,109.118h202.994c5.568,0,10.083-4.515,10.083-10.083s-4.515-10.083-10.083-10.083H154.502
	c-5.568,0-10.083,4.515-10.083,10.083S148.934,109.118,154.502,109.118z"/>
<path d="M154.502,182.22h80.957c5.568,0,10.083-4.515,10.083-10.083s-4.515-10.083-10.083-10.083h-80.957
	c-5.568,0-10.083,4.515-10.083,10.083S148.934,182.22,154.502,182.22z"/>
<path d="M154.502,229.339h80.957c5.568,0,10.083-4.515,10.083-10.083c0-5.568-4.515-10.083-10.083-10.083h-80.957
	c-5.568,0-10.083,4.515-10.083,10.083C144.419,224.823,148.934,229.339,154.502,229.339z"/>
<path d="M154.502,276.467h80.957c5.568,0,10.083-4.515,10.083-10.083c0-5.568-4.515-10.083-10.083-10.083h-80.957
	c-5.568,0-10.083,4.515-10.083,10.083C144.419,271.952,148.934,276.467,154.502,276.467z"/>
<path d="M357.496,162.054h-71.288c-5.568,0-10.083,4.515-10.083,10.083v105.722c0,5.568,4.515,10.083,10.083,10.083h71.288
	c5.568,0,10.083-4.515,10.083-10.083V172.137C367.579,166.569,363.064,162.054,357.496,162.054z M347.413,267.776h-51.121V182.22
	h51.121V267.776z"/>
<path d="M275.821,444.215H199.73c-5.568,0-10.083,4.515-10.083,10.083c0,5.568,4.515,10.083,10.083,10.083h76.091
	c5.568,0,10.083-4.515,10.083-10.083C285.904,448.73,281.389,444.215,275.821,444.215z"/>
<path d="M302.71,444.195c-12.976,0-12.997,20.166,0,20.166C315.686,464.361,315.707,444.195,302.71,444.195z"/>
<g>
</g>
<g>
</g>
<g>
</g>
<g>
</g>
<g>
</g>
<g>
</g>
<g>
</g>
<g>
</g>
<g>
</g>
<g>
</g>
<g>
</g>
<g>
</g>
<g>
</g>
<g>
</g>
<g>
</g>
</svg>
