<?xml version="1.0" encoding="iso-8859-1"?>
<!-- Generator: Adobe Illustrator 19.0.0, SVG Export Plug-In . SVG Version: 6.00 Build 0)  -->
<svg version="1.1" id="Capa_1" xmlns="http://www.w3.org/2000/svg" xmlns:xlink="http://www.w3.org/1999/xlink" x="0px" y="0px"
	 viewBox="0 0 480 480" style="enable-background:new 0 0 480 480;" xml:space="preserve">
<path style="fill:#F8CF26;" d="M228.024,260.648c2.464,1.432,3.976,4.064,3.976,6.912V280h16v-12.44c0-2.848,1.512-5.48,3.976-6.912
	C259.504,256.264,264,248.544,264,240c0-13.232-10.768-24-24-24s-24,10.768-24,24C216,248.544,220.496,256.264,228.024,260.648z"/>
<path style="fill:#3C9BB7;" d="M184,72v336c0,3.32-2.048,6.296-5.152,7.48L51.472,464h377.056l-127.376-48.52
	c-3.104-1.184-5.152-4.16-5.152-7.48V72c0-3.32,2.048-6.296,5.152-7.48L428.528,16H51.472l127.376,48.52
	C181.952,65.704,184,68.68,184,72z M282.344,180.688L293.656,192l-11.312,11.312L271.032,192L282.344,180.688z M232,168h16v16h-16
	V168z M240,200c22.056,0,40,17.944,40,40c0,12.504-6.032,24.328-16,31.832V288v32c0,4.416-3.584,8-8,8h-8v8h-16v-8h-8
	c-4.416,0-8-3.584-8-8v-32v-16.168c-9.968-7.512-16-19.328-16-31.832C200,217.944,217.944,200,240,200z M200,180.688L211.312,192
	L200,203.312L188.688,192L200,180.688z"/>
<path style="fill:#EBAA39;" d="M168,77.512L16,19.608v440.784l152-57.904V77.512z M152,288h-16V184h16V288z"/>
<rect x="232" y="296" style="fill:#F8CF26;" width="16" height="16"/>
<path style="fill:#EBAA39;" d="M312,402.488l152,57.904V19.608L312,77.512V402.488z M328,192h16v104h-16V192z"/>
<g>
	<rect x="136" y="184" style="fill:#111527;" width="16" height="104"/>
	<path style="fill:#111527;" d="M480,472V8c0-0.976-0.232-1.904-0.56-2.792c-0.064-0.176-0.12-0.344-0.2-0.52
		c-0.368-0.808-0.864-1.552-1.48-2.2c-0.12-0.128-0.256-0.224-0.384-0.336c-0.272-0.248-0.52-0.52-0.832-0.736
		c-0.368-0.256-0.768-0.424-1.168-0.608c-0.128-0.064-0.24-0.144-0.376-0.2c-0.872-0.352-1.792-0.52-2.72-0.552
		C472.176,0.048,472.096,0,472,0H8C7.896,0,7.808,0.056,7.704,0.056c-0.92,0.04-1.832,0.2-2.696,0.544
		C4.872,0.664,4.76,0.744,4.624,0.808c-0.4,0.184-0.8,0.352-1.16,0.608c-0.312,0.216-0.56,0.488-0.832,0.736
		C2.496,2.272,2.36,2.368,2.24,2.488c-0.616,0.656-1.112,1.392-1.48,2.2c-0.08,0.176-0.128,0.344-0.2,0.52C0.232,6.096,0,7.024,0,8
		v464c0,0.976,0.232,1.904,0.56,2.792c0.064,0.176,0.12,0.352,0.2,0.52c0.368,0.808,0.864,1.552,1.48,2.2
		c0.12,0.128,0.256,0.224,0.384,0.344c0.272,0.248,0.52,0.52,0.832,0.736c0.288,0.2,0.624,0.296,0.928,0.456
		c0.272,0.144,0.528,0.288,0.824,0.4C6.112,479.776,7.048,480,8,480h464c0.952,0,1.888-0.224,2.784-0.56
		c0.296-0.112,0.544-0.256,0.824-0.4c0.312-0.16,0.64-0.256,0.928-0.456c0.312-0.216,0.56-0.488,0.832-0.736
		c0.128-0.12,0.264-0.216,0.384-0.344c0.624-0.648,1.112-1.392,1.48-2.2c0.08-0.168,0.128-0.344,0.2-0.52
		C479.768,473.904,480,472.976,480,472z M312,402.488V77.512l152-57.904v440.784L312,402.488z M301.152,64.52
		C298.048,65.704,296,68.68,296,72v336c0,3.32,2.048,6.296,5.152,7.48L428.528,464H51.472l127.376-48.52
		c3.104-1.184,5.152-4.16,5.152-7.48V72c0-3.32-2.048-6.296-5.152-7.48L51.472,16h377.056L301.152,64.52z M168,77.512v324.976
		L16,460.392V19.608L168,77.512z"/>
	<rect x="328" y="192" style="fill:#111527;" width="16" height="104"/>
	<path style="fill:#111527;" d="M216,271.832V288v32c0,4.416,3.584,8,8,8h8v8h16v-8h8c4.416,0,8-3.584,8-8v-32v-16.168
		c9.968-7.512,16-19.328,16-31.832c0-22.056-17.944-40-40-40s-40,17.944-40,40C200,252.504,206.032,264.328,216,271.832z M248,312
		h-16v-16h16V312z M240,216c13.232,0,24,10.768,24,24c0,8.544-4.496,16.264-12.024,20.648c-2.464,1.432-3.976,4.064-3.976,6.912V280
		h-16v-12.44c0-2.848-1.512-5.48-3.976-6.912C220.496,256.264,216,248.544,216,240C216,226.768,226.768,216,240,216z"/>
	<rect x="232" y="168" style="fill:#111527;" width="16" height="16"/>
	
		<rect x="274.323" y="184.015" transform="matrix(-0.7071 0.7071 -0.7071 -0.7071 617.7302 128.1572)" style="fill:#111527;" width="16" height="16"/>
	
		<rect x="191.994" y="183.999" transform="matrix(-0.7071 0.7071 -0.7071 -0.7071 477.1757 186.3458)" style="fill:#111527;" width="16" height="16"/>
</g>
<g>
</g>
<g>
</g>
<g>
</g>
<g>
</g>
<g>
</g>
<g>
</g>
<g>
</g>
<g>
</g>
<g>
</g>
<g>
</g>
<g>
</g>
<g>
</g>
<g>
</g>
<g>
</g>
<g>
</g>
</svg>
